fd_2_states
version=1
nRows=27
nColumns=17
inDegrees=yes

# SIMM Motion File Header:
name fd_2_states
datacolumns 17
datarows 27
otherdata 1
range 0.356651 0.370245
endheader
time	/jointset/r_shoulder/r_shoulder_elev/value	/jointset/r_shoulder/r_shoulder_elev/speed	/jointset/r_elbow/r_elbow_flex/value	/jointset/r_elbow/r_elbow_flex/speed	/forceset/TRIlong/activation	/forceset/TRIlong/fiber_length	/forceset/TRIlat/activation	/forceset/TRIlat/fiber_length	/forceset/TRImed/activation	/forceset/TRImed/fiber_length	/forceset/BIClong/activation	/forceset/BIClong/fiber_length	/forceset/BICshort/activation	/forceset/BICshort/fiber_length	/forceset/BRA/activation	/forceset/BRA/fiber_length
      0.356651	     -5.350978	     32.094898	     92.514599	    283.661675	      0.021567	      0.167104	      0.189298	      0.103802	      0.186157	      0.098867	      0.879058	      0.095717	      0.365621	      0.095204	      0.022411	      0.067792
      0.357360	     -5.328086	     32.482887	     92.715639	    283.484615	      0.021552	      0.167224	      0.190738	      0.103866	      0.187579	      0.098931	      0.883673	      0.095527	      0.373590	      0.094982	      0.022389	      0.067711
      0.358069	     -5.304918	     32.872893	     92.916573	    283.365422	      0.021538	      0.167269	      0.192050	      0.103931	      0.188875	      0.098995	      0.888096	      0.095336	      0.380963	      0.094761	      0.022366	      0.067631
      0.358939	     -5.276108	     33.336985	     93.163120	    283.267038	      0.021520	      0.167373	      0.193504	      0.104010	      0.190310	      0.099075	      0.893277	      0.095102	      0.389279	      0.094492	      0.022339	      0.067532
      0.359440	     -5.259348	     33.600543	     93.304962	    283.245545	      0.021510	      0.167426	      0.194269	      0.104056	      0.191064	      0.099121	      0.896139	      0.094967	      0.393730	      0.094339	      0.022323	      0.067475
      0.359804	     -5.247076	     33.789922	     93.408128	    283.245019	      0.021503	      0.167468	      0.194795	      0.104090	      0.191583	      0.099155	      0.898168	      0.094869	      0.396826	      0.094228	      0.022312	      0.067433
      0.359963	     -5.241678	     33.872367	     93.453317	    283.249096	      0.021499	      0.167486	      0.195018	      0.104105	      0.191803	      0.099170	      0.899044	      0.094826	      0.398146	      0.094179	      0.022307	      0.067415
      0.360020	     -5.239772	     33.901351	     93.469246	    283.251156	      0.021498	      0.167493	      0.195099	      0.104110	      0.191883	      0.099175	      0.899341	      0.094811	      0.398461	      0.094162	      0.022305	      0.067409
      0.360076	     -5.237865	     33.930284	     93.485175	    283.253547	      0.021497	      0.167499	      0.195197	      0.104115	      0.191986	      0.099180	      0.899576	      0.094796	      0.397907	      0.094145	      0.022304	      0.067402
      0.360132	     -5.235956	     33.959168	     93.501103	    283.256263	      0.021496	      0.167506	      0.195297	      0.104120	      0.192090	      0.099185	      0.899807	      0.094780	      0.397325	      0.094128	      0.022302	      0.067396
      0.360413	     -5.226388	     34.102905	     93.580751	    283.274389	      0.021490	      0.167538	      0.195782	      0.104146	      0.192599	      0.099211	      0.900953	      0.094705	      0.394435	      0.094045	      0.022293	      0.067364
      0.361819	     -5.177944	     34.810301	     93.979111	    283.449873	      0.021463	      0.167701	      0.197960	      0.104276	      0.194881	      0.099341	      0.906414	      0.094327	      0.380474	      0.093649	      0.022251	      0.067204
      0.362995	     -5.136682	     35.396121	     94.312412	    283.662367	      0.021440	      0.167832	      0.199503	      0.104385	      0.196495	      0.099450	      0.910657	      0.094012	      0.369395	      0.093340	      0.022216	      0.067069
      0.363516	     -5.118157	     35.655056	     94.460357	    283.762532	      0.021430	      0.167913	      0.200117	      0.104434	      0.197137	      0.099499	      0.912450	      0.093873	      0.364642	      0.093208	      0.022200	      0.067010
      0.364038	     -5.099496	     35.917276	     94.608357	    283.869853	      0.021420	      0.167958	      0.200691	      0.104483	      0.197737	      0.099548	      0.914192	      0.093733	      0.359986	      0.093078	      0.022185	      0.066950
      0.364762	     -5.073356	     36.280250	     94.813967	    284.011113	      0.021407	      0.168044	      0.201429	      0.104551	      0.198508	      0.099616	      0.916528	      0.093540	      0.353674	      0.092902	      0.022164	      0.066867
      0.365419	     -5.049411	     36.612320	     95.000603	    284.135160	      0.021394	      0.168117	      0.202042	      0.104613	      0.199148	      0.099677	      0.918568	      0.093365	      0.348096	      0.092745	      0.022145	      0.066791
      0.366053	     -5.026076	     36.934102	     95.180935	    284.244408	      0.021383	      0.168218	      0.202587	      0.104673	      0.199717	      0.099737	      0.920468	      0.093196	      0.342839	      0.092595	      0.022127	      0.066718
      0.366688	     -5.002536	     37.262841	     95.361335	    284.353001	      0.021371	      0.168266	      0.203091	      0.104733	      0.200242	      0.099798	      0.922302	      0.093027	      0.337706	      0.092448	      0.022109	      0.066645
      0.367322	     -4.978787	     37.590168	     95.541798	    284.440783	      0.021360	      0.168359	      0.203556	      0.104793	      0.200727	      0.099858	      0.924073	      0.092858	      0.332692	      0.092302	      0.022091	      0.066572
      0.367957	     -4.954829	     37.923652	     95.722314	    284.522022	      0.021348	      0.168415	      0.203986	      0.104854	      0.201175	      0.099918	      0.925783	      0.092690	      0.327793	      0.092158	      0.022074	      0.066499
      0.368591	     -4.930659	     38.256521	     95.902875	    284.580903	      0.021337	      0.168529	      0.204382	      0.104915	      0.201588	      0.099979	      0.927434	      0.092521	      0.323006	      0.092014	      0.022056	      0.066426
      0.369226	     -4.906274	     38.599262	     96.083474	    284.638639	      0.021326	      0.168568	      0.204749	      0.104975	      0.201969	      0.100040	      0.929028	      0.092353	      0.318328	      0.091872	      0.022039	      0.066352
      0.369724	     -4.886976	     38.866032	     96.225304	    284.663192	      0.021317	      0.168626	      0.205017	      0.105023	      0.202248	      0.100087	      0.930242	      0.092221	      0.314727	      0.091761	      0.022026	      0.066295
      0.370022	     -4.875391	     39.026112	     96.309982	    284.672829	      0.021312	      0.168662	      0.205158	      0.105052	      0.202393	      0.100116	      0.930976	      0.092142	      0.312748	      0.091694	      0.022018	      0.066260
      0.370119	     -4.871589	     39.078663	     96.337695	    284.675186	      0.021310	      0.168673	      0.205162	      0.105061	      0.202394	      0.100125	      0.931316	      0.092116	      0.312800	      0.091673	      0.022015	      0.066249
      0.370245	     -4.866668	     39.146703	     96.373510	    284.677683	      0.021308	      0.168688	      0.205161	      0.105073	      0.202389	      0.100137	      0.931770	      0.092083	      0.312986	      0.091645	      0.022012	      0.066234
